<svg version="1.1" id="CNSC" xmlns="http://www.w3.org/2000/svg"
    xmlns:xlink="http://www.w3.org/1999/xlink" x="0px" y="0px" width="109.8499985px"
    height="41px" viewBox="0 0 109.8499985 41" enable-background="new 0 0 109.8499985 41"
    xml:space="preserve">
    <g>
        <g>
            <g>
                <g>
                    <path d="M99.3227768,0h-89.78759C9.1684866,0,8.8061771,0,8.4404564,0.001953
                            C8.1343069,0.003906,7.8305969,0.009766,7.5215082,0.014648C6.8559866,0.03125,6.1821566,0.072266,5.5176067,0.191406
                            C4.848177,0.308594,4.2261066,0.508789,3.6167269,0.818359C3.0180967,1.125,2.4712083,1.52344,1.9980768,1.99707
                            c-0.47852,0.4736301-0.875,1.0224601-1.17822,1.6210901c-0.311039,0.6084001-0.508305,1.2334001-0.625004,1.9033201
                            c-0.120606,0.6621099-0.162109,1.3320398-0.179199,2.0019598C0.0063758,7.83008,0.0053998,8.1377001,0.0005084,8.4443398
                            c0,0.3622999,0,0.7255802,0,1.0917902v20.928669c0,0.3691998,0,0.7304993,0,1.0937996
                            c0.0048914,0.3105011,0.0058674,0.6112995,0.0151454,0.9218998c0.01709,0.669899,0.058593,1.3398018,0.179199,2.0018997
                            c0.116699,0.6699028,0.313965,1.2979012,0.625004,1.9043007c0.30322,0.5956993,0.6997,1.1445999,1.17822,1.6142998
                            c0.4731315,0.4775009,1.0200199,0.875,1.6186501,1.1786995c0.6093798,0.3125,1.2314501,0.5098,1.9008799,0.6308022
                            c0.6645498,0.1191978,1.3383799,0.1582985,2.0039015,0.1767998c0.3090887,0.0067978,0.6127987,0.0107002,0.9189482,0.0107002
                            C8.8061771,40,9.1684866,40,9.5351868,40h89.78759c0.3593979,0,0.7246017,0,1.0839996-0.0019989
                            c0.3047028,0,0.6172028-0.0039024,0.9218979-0.0107002c0.669899-0.0185013,1.3418045-0.0576019,2-0.1767998
                            c0.669899-0.1210022,1.2929001-0.3183022,1.9082031-0.6308022c0.5976028-0.3036995,1.1445007-0.7011986,1.6172028-1.1786995
                            c0.4764938-0.4696999,0.8730011-1.0186005,1.1815948-1.6142998c0.3066025-0.6063995,0.5059052-1.2343979,0.6191025-1.9043007
                            c0.1231003-0.6620979,0.1621017-1.3320007,0.1856003-2.0018997c0.0038986-0.3106003,0.0038986-0.6113987,0.0038986-0.9218998
                            c0.0078049-0.3633003,0.0078049-0.7245998,0.0078049-1.0937996V9.53613c0-0.36621,0-0.7294903-0.0078049-1.0917902
                            c0-0.3066397,0-0.6142597-0.0038986-0.9208999c-0.0234985-0.66992-0.0625-1.3398499-0.1856003-2.0019598
                            c-0.1131973-0.66992-0.3125-1.29492-0.6191025-1.9033201c-0.3085938-0.59863-0.705101-1.14746-1.1815948-1.6210901
                            c-0.472702-0.47363-1.0195999-0.87207-1.6172028-1.1787109c-0.615303-0.30957-1.2383041-0.509765-1.9082031-0.626953
                            c-0.6581955-0.11914-1.330101-0.160156-2-0.176758c-0.3046951-0.004882-0.6171951-0.010742-0.9218979-0.012695
                            C100.0473785,0,99.6821747,0,99.3227768,0L99.3227768,0z"></path>
                    <path fill="#FFFFFF" d="M8.4453363,39.125c-0.3046799,0-0.6020494-0.0038986-0.9042897-0.0107002
                            c-0.5590796-0.0157013-1.2221699-0.0468979-1.8691397-0.1631012c-0.6103501-0.1103973-1.1528401-0.2901001-1.6567402-0.5478973
                            c-0.5214901-0.2646027-0.9902401-0.6063995-1.39697-1.0166016c-0.4140699-0.4062004-0.7543999-0.8730011-1.02051-1.3964996
                            c-0.25928-0.5047989-0.43653-1.0467987-0.5429784-1.6571999c-0.1220616-0.672802-0.1533116-1.3554993-0.1665-1.875
                            c-0.0063416-0.2108994-0.0146416-0.9130993-0.0146416-0.9130993V8.4443398c0,0,0.00879-0.6914096,0.0146416-0.8945398
                            C0.9013968,7.0258799,0.9326468,6.34375,1.0537368,5.6777301c0.1069399-0.61377,0.2841716-1.1552701,0.54346-1.6621003
                            C1.8628083,3.49121,2.2036467,3.02197,2.6123369,2.6176801C3.0259068,2.2036099,3.4966068,1.86084,4.0146766,1.59521
                            C4.5283465,1.33447,5.0698566,1.15625,5.6679969,1.05127c0.6733398-0.120606,1.3559599-0.150879,1.8754897-0.164063
                            L8.4458265,0.875h91.9560547l0.9131012,0.012695c0.5126953,0.012696,1.1952972,0.042969,1.8583984,0.162595
                            c0.6025009,0.1054701,1.1474991,0.28467,1.6708984,0.54785c0.5127029,0.2627,0.982399,0.6054699,1.3916016,1.01563
                            c0.4092026,0.40625,0.7518997,0.8779299,1.0233994,1.4043002c0.2578049,0.51123,0.4336014,1.0527296,0.535202,1.6489196
                            c0.1161957,0.6308603,0.152298,1.27881,0.1737976,1.8872104c0.0028992,0.2831998,0.0028992,0.5873995,0.0028992,0.8901396
                            c0.0079041,0.375,0.0079041,0.7319298,0.0079041,1.0917902v20.928669c0,0.3633003,0,0.7178001-0.0079041,1.075201
                            c0,0.3251991,0,0.6231003-0.0038986,0.9296989c-0.0205002,0.5889015-0.0566025,1.2364006-0.1708984,1.8535004
                            c-0.1035004,0.6133003-0.2792969,1.1553001-0.5400009,1.6699982c-0.2695007,0.5195007-0.6122971,0.9892006-1.0156021,1.3857002
                            c-0.4131012,0.4180031-0.881897,0.7588005-1.3993988,1.0225029c-0.5186005,0.2635994-1.0478973,0.4384003-1.6679993,0.5497971
                            c-0.6406021,0.1162033-1.3037033,0.1473999-1.8692017,0.1631012c-0.2929001,0.0068016-0.5996017,0.0107002-0.8973999,0.0107002
                            l-1.0839996,0.0019989L8.4453363,39.125z"></path>
                </g>
            </g>
        </g>
        <g id="XMLID_20_">
            <g id="XMLID_21_">
                <path id="XMLID_23_" d="M24.997221,19.8893471c-0.0260067-2.8605747,2.3421974-4.2526493,2.4505768-4.3177128
                        c-1.3410358-1.9555435-3.4201374-2.2229872-4.1503925-2.2437582c-1.7462406-0.1832962-3.4391327,1.0449219-4.3289852,1.0449219
                        c-0.9070663,0-2.277132-1.0267248-3.7524672-0.9963684c-1.8991785,0.0294695-3.6766634,1.1290693-4.651372,2.8366976
                        c-2.0111094,3.4820042-0.5110102,8.5993843,1.4155073,11.4139805c0.9638805,1.3782272,2.0903749,2.9177361,3.5643778,2.8631477
                        c1.4424038-0.0598278,1.9811077-0.9197655,3.7221985-0.9197655c1.7249374,0,2.2303543,0.9197655,3.734272,0.8850594
                        c1.5477638-0.0251217,2.5229168-1.3843536,3.4529858-2.775629c1.113884-1.580164,1.561161-3.1361828,1.5790024-3.2158928
                        C27.9968872,24.4518661,25.0266914,23.3189812,24.997221,19.8893471z">
                </path>
                <path id="XMLID_22_" d="M22.15662,11.4768076c0.7754345-0.9704494,1.3063278-2.2901812,1.1589813-3.6298857
                        c-1.1229439,0.0497966-2.5272675,0.7762346-3.3355465,1.7258244c-0.7151661,0.8360615-1.3544388,2.2070103-1.1893387,3.4954977
                        C20.0519543,13.1618891,21.3470097,12.4319887,22.15662,11.4768076z">
                </path>
            </g>
        </g>
        <g>
            <path
                d="M41.1679306,16.5546227h-4.0515747l-0.9729805,2.8729649h-1.7160873l3.8375854-10.629221h1.7829628l3.8375854,10.629221
                    h-1.7453461L41.1679306,16.5546227z M37.5359726,15.2288952h3.2115059l-1.5831833-4.6626139h-0.0443039L37.5359726,15.2288952z">
            </path>
            <path
                d="M52.1733055,15.5532217c0,2.4082098-1.2889481,3.9554491-3.2340698,3.9554491
                    c-1.1042175,0-1.9810677-0.4940147-2.4383049-1.3558197h-0.0367775v3.8384228h-1.5907059V11.6780195h1.5397148v1.2889481
                    h0.0292587c0.4421883-0.8317146,1.3850746-1.3700294,2.467556-1.3700294
                    C50.8768349,11.5969381,52.1733055,13.1517,52.1733055,15.5532217z M50.5382996,15.5532217
                    c0-1.5689716-0.8108177-2.6004648-2.0479393-2.6004648c-1.2153893,0-2.0328941,1.0532265-2.0328941,2.6004648
                    c0,1.56145,0.8175049,2.607152,2.0328941,2.607152C49.7274818,18.1603737,50.5382996,17.136404,50.5382996,15.5532217z">
            </path>
            <path
                d="M60.7031822,15.5532217c0,2.4082098-1.2893677,3.9554491-3.2344894,3.9554491
                    c-1.1042175,0-1.9810677-0.4940147-2.4383011-1.3558197h-0.0367813v3.8384228h-1.5907059V11.6780195h1.5397186v1.2889481
                    h0.0292549c0.4421883-0.8317146,1.3850746-1.3700294,2.467556-1.3700294
                    C59.406292,11.5969381,60.7031822,13.1517,60.7031822,15.5532217z M59.0677567,15.5532217
                    c0-1.5689716-0.8108177-2.6004648-2.0479393-2.6004648c-1.2153893,0-2.0328941,1.0532265-2.0328941,2.6004648
                    c0,1.56145,0.8175049,2.607152,2.0328941,2.607152C58.2569389,18.1603737,59.0677567,17.136404,59.0677567,15.5532217z">
            </path>
            <path d="M66.3396149,16.4660168c0.1178589,1.0540619,1.1418304,1.7461815,2.5411148,1.7461815
                    c1.3407745,0,2.3053894-0.6921196,2.3053894-1.6425304c0-0.8250265-0.5817795-1.3190393-1.9593277-1.6575766l-1.3775558-0.3318491
                    c-1.9518127-0.4714441-2.8579178-1.3842402-2.8579178-2.8654432c0-1.833951,1.5982285-3.0936422,3.8668442-3.0936422
                    c2.2468796,0,3.7865982,1.2596912,3.8384171,3.0936422h-1.605751c-0.0961227-1.0607491-0.9729767-1.7010431-2.2544022-1.7010431
                    s-2.1582794,0.6478167-2.1582794,1.5907049c0,0.7514687,0.560051,1.193656,1.9300842,1.5321932l1.1710815,0.2875471
                    c2.1808472,0.5157461,3.0861206,1.3917627,3.0861206,2.9465246c0,1.9885902-1.5831833,3.2340717-4.102562,3.2340717
                    c-2.3572235,0-3.948761-1.2162247-4.0515823-3.1387806H66.3396149z"></path>
            <path d="M76.3001175,9.8440685v1.833951h1.4736786v1.2596912h-1.4736786v4.2722521
                    c0,0.6637001,0.2950745,0.9729805,0.9428864,0.9729805c0.1621704,0,0.4204559-0.0225697,0.5232697-0.0367794v1.2521687
                    c-0.1763687,0.044302-0.529953,0.0735588-0.8835373,0.0735588c-1.5689697,0-2.1808472-0.5893059-2.1808472-2.0922413v-4.4419394
                    h-1.1267853v-1.2596912h1.1267853v-1.833951H76.3001175z"></path>
            <path
                d="M78.6264114,15.5532217c0-2.4383011,1.4360657-3.9704943,3.6754227-3.9704943
                    c2.2468796,0,3.6762619,1.5321932,3.6762619,3.9704943c0,2.4449892-1.4218597,3.9704943-3.6762619,3.9704943
                    C80.0482635,19.523716,78.6264114,17.9982109,78.6264114,15.5532217z M84.3572998,15.5532217
                    c0-1.6726227-0.7665176-2.6598129-2.0554657-2.6598129s-2.0554581,0.9947128-2.0554581,2.6598129
                    c0,1.6793108,0.76651,2.6589766,2.0554581,2.6589766S84.3572998,17.2325325,84.3572998,15.5532217z">
            </path>
            <path
                d="M87.2896118,11.6780195h1.5171432v1.3190403h0.0367813c0.243248-0.876853,0.9504089-1.4001217,1.8640442-1.4001217
                    c0.2281952,0,0.4196167,0.0300913,0.5450058,0.0593481v1.4878902c-0.1253891-0.0518255-0.4054108-0.0961275-0.7146912-0.0961275
                    c-1.0239716,0-1.6575775,0.692956-1.6575775,1.7829609v4.5965776h-1.5907059V11.6780195z">
            </path>
            <path d="M98.5867157,17.1514511c-0.2139893,1.4068089-1.5840225,2.3722649-3.3368912,2.3722649
                    c-2.2544022,0-3.6536865-1.5104599-3.6536865-3.9337149c0-2.4307785,1.4068069-4.0072737,3.5868149-4.0072737
                    c2.1440659,0,3.492363,1.4728441,3.492363,3.8225412v0.5450029H93.201889v0.0961266
                    c0,1.3257275,0.83255,2.1950569,2.0847168,2.1950569c0.8835373,0,1.5764923-0.4196186,1.78965-1.090004H98.5867157z
                    M93.2094116,14.8385324h3.8743668c-0.0367813-1.1861324-0.7957764-1.966857-1.9008255-1.966857
                    C94.0854263,12.8716755,93.2904892,13.6674461,93.2094116,14.8385324z"></path>
        </g>
        <g>
            <path d="M34.7412529,25.4042969l0.574707-0.3671875c0.1069336,0.1005859,0.2075195,0.1982422,0.3007812,0.2910156
                    c0.0932617,0.09375,0.1845703,0.1884766,0.2734375,0.2832031c0.1132812-0.1376953,0.2275391-0.2832031,0.3422852-0.4365234
                    s0.2290039-0.3183594,0.3422852-0.4960938h-2.0126953v-0.7265625h2.8579102v0.6064453
                    c-0.168457,0.3125-0.34375,0.5976562-0.5258789,0.8544922c-0.1821289,0.2578125-0.3637695,0.4931641-0.5444336,0.7080078
                    c0.0551758,0.0732422,0.109375,0.1445312,0.1630859,0.2138672c0.0537109,0.0683594,0.1064453,0.1289062,0.1586914,0.1816406
                    h0.9785156v0.4863281c-0.1318359,0.6591797-0.2866211,1.1708984-0.4638672,1.5351562l-0.6479492-0.2441406
                    c0.0761719-0.1435547,0.1420898-0.3017578,0.1972656-0.4755859c0.0551758-0.1728516,0.1118164-0.3603516,0.1704102-0.5625
                    h-0.6801758v3.3037109c0,0.5087891-0.234375,0.7626953-0.703125,0.7626953h-0.8085938l-0.1699219-0.7255859
                    c0.1254883,0.0214844,0.246582,0.0361328,0.362793,0.0458984c0.1166992,0.0087891,0.2358398,0.0136719,0.3583984,0.0136719
                    c0.1411133,0,0.2114258-0.0947266,0.2114258-0.2851562v-3.1152344H34.336956v-0.7392578h1.4658203
                    c-0.1499023-0.171875-0.3129883-0.3505859-0.4892578-0.5361328C35.137249,25.7958984,34.9468193,25.6035156,34.7412529,25.4042969
                    z M39.4922295,26.5712891h0.7719727v1.4746094c-0.0366211,0.9042969-0.2431641,1.6191406-0.6201172,2.1464844
                    c-0.184082,0.2509766-0.4243164,0.4707031-0.7211914,0.6591797c-0.2973633,0.1884766-0.6499023,0.3544922-1.0571289,0.4980469
                    l-0.4316406-0.6748047c0.7900391-0.2636719,1.3291016-0.5898438,1.6171875-0.9794922
                    c0.2695312-0.4287109,0.4165039-0.9785156,0.440918-1.6494141V26.5712891z M37.8291435,23.9521484h4.1582031v0.7441406h-1.6401367
                    c-0.0126953,0.1318359-0.0307617,0.2597656-0.0551758,0.3818359c-0.0249023,0.1220703-0.0522461,0.2460938-0.0830078,0.3720703
                    h1.534668v4.0205078h-0.7441406v-3.3222656h-2.1918945v3.3222656h-0.7441406v-4.0205078h1.3920898
                    c0.0185547-0.1259766,0.0400391-0.2509766,0.0644531-0.3769531c0.0244141-0.125,0.0429688-0.2509766,0.0551758-0.3769531
                    h-1.7460938V23.9521484z M40.0757256,29.9296875l0.5009766-0.4912109c0.300293,0.2324219,0.5727539,0.4628906,0.8178711,0.6894531
                    s0.4672852,0.4511719,0.6665039,0.6748047l-0.546875,0.546875C41.165081,30.8994141,40.6855888,30.4267578,40.0757256,29.9296875z
                    "></path>
            <path
                d="M43.3911552,26.1484375h1.9301758v3.59375c0.1435547-0.1201172,0.2905273-0.2451172,0.440918-0.3769531
                    c0.1499023-0.1318359,0.3032227-0.2695312,0.4594727-0.4140625l0.2158203,0.8369141
                    c-0.2753906,0.2451172-0.5634766,0.4794922-0.8637695,0.7021484c-0.300293,0.2236328-0.6079102,0.4326172-0.9233398,0.625
                    l-0.3081055-0.7070312c0.144043-0.1201172,0.2158203-0.2607422,0.2158203-0.4228516v-3.0742188h-1.1669922V26.1484375z
                    M43.9473076,24.2558594l0.5512695-0.5380859c0.2695312,0.2089844,0.519043,0.4160156,0.7490234,0.6230469
                    c0.2294922,0.2070312,0.4379883,0.4140625,0.625,0.6220703l-0.5424805,0.5429688
                    C44.9839287,25.1162109,44.5229912,24.7001953,43.9473076,24.2558594z M46.2217216,24.0761719h4.8935547v0.78125h-1.6958008
                    v5.6103516c0,0.5634766-0.2817383,0.8457031-0.8452148,0.8457031h-1.1074219l-0.1791992-0.7724609
                    c0.1748047,0.0126953,0.3466797,0.0244141,0.5170898,0.0371094c0.1699219,0.0117188,0.3330078,0.0185547,0.4892578,0.0185547
                    c0.2236328,0,0.3354492-0.109375,0.3354492-0.3261719v-5.4130859h-2.4077148V24.0761719z">
            </path>
        </g>
    </g>
    <g>
    </g>
    <g>
    </g>
    <g>
    </g>
    <g>
    </g>
    <g>
    </g>
    <g>
    </g>
</svg>